<svg width="12" height="12" viewBox="0 0 12 12" fill="none" xmlns="http://www.w3.org/2000/svg">
<g clip-path="url(#clip0_122_1951)">
<path d="M6 12C9.31371 12 12 9.31371 12 6C12 2.68629 9.31371 0 6 0C2.68629 0 0 2.68629 0 6C0 9.31371 2.68629 12 6 12Z" fill="#FFD930"/>
<path d="M12 6C12 9.31359 9.31359 12 6 12V0C9.31359 0 12 2.68641 12 6Z" fill="#FEA535"/>
<path d="M6 10.5C8.48528 10.5 10.5 8.48528 10.5 6C10.5 3.51472 8.48528 1.5 6 1.5C3.51472 1.5 1.5 3.51472 1.5 6C1.5 8.48528 3.51472 10.5 6 10.5Z" fill="#FEA535"/>
<path d="M10.5 6C10.5 8.48531 8.48531 10.5 6 10.5V1.5C8.48531 1.5 10.5 3.51469 10.5 6Z" fill="#FE7E52"/>
<path d="M8.13662 4.53467L6.93756 5.04913L6.21404 3.89905H5.78607L5.06256 5.04913L3.8635 4.53467L3.49951 4.84475L4.3135 8.10092H7.68662L8.50061 4.84475L8.13662 4.53467Z" fill="#FFD930"/>
<path d="M8.50055 4.84475L7.68656 8.10092H6V3.89905H6.21398L6.9375 5.04913L8.13656 4.53467L8.50055 4.84475Z" fill="#FEA535"/>
</g>
<defs>
<clipPath id="clip0_122_1951">
<rect width="12" height="12" fill="white"/>
</clipPath>
</defs>
</svg>
