<svg width="45" height="45" viewBox="0 0 45 45" fill="none" xmlns="http://www.w3.org/2000/svg">
<path d="M5.00677 42.12C4.12677 42.12 3.37077 41.944 2.73877 41.592C2.11477 41.232 1.63477 40.728 1.29877 40.08C0.962766 39.424 0.794766 38.652 0.794766 37.764C0.794766 36.876 0.962766 36.108 1.29877 35.46C1.63477 34.812 2.11477 34.312 2.73877 33.96C3.37077 33.6 4.12677 33.42 5.00677 33.42C5.59877 33.42 6.13077 33.504 6.60277 33.672C7.08277 33.84 7.49477 34.088 7.83877 34.416L7.33477 35.64C6.95877 35.336 6.59477 35.12 6.24277 34.992C5.89877 34.856 5.50277 34.788 5.05477 34.788C4.19877 34.788 3.54277 35.048 3.08677 35.568C2.63877 36.08 2.41477 36.812 2.41477 37.764C2.41477 38.716 2.63877 39.452 3.08677 39.972C3.54277 40.492 4.19877 40.752 5.05477 40.752C5.50277 40.752 5.89877 40.688 6.24277 40.56C6.59477 40.424 6.95877 40.2 7.33477 39.888L7.83877 41.112C7.49477 41.432 7.08277 41.68 6.60277 41.856C6.13077 42.032 5.59877 42.12 5.00677 42.12ZM11.4797 42.12C10.8557 42.12 10.3157 41.992 9.85973 41.736C9.40373 41.48 9.04773 41.116 8.79173 40.644C8.54373 40.172 8.41973 39.612 8.41973 38.964C8.41973 38.316 8.54373 37.76 8.79173 37.296C9.04773 36.824 9.40373 36.46 9.85973 36.204C10.3157 35.948 10.8557 35.82 11.4797 35.82C12.1037 35.82 12.6437 35.948 13.0997 36.204C13.5637 36.46 13.9197 36.824 14.1677 37.296C14.4237 37.76 14.5517 38.316 14.5517 38.964C14.5517 39.612 14.4237 40.172 14.1677 40.644C13.9197 41.116 13.5637 41.48 13.0997 41.736C12.6437 41.992 12.1037 42.12 11.4797 42.12ZM11.4797 40.968C11.9517 40.968 12.3277 40.804 12.6077 40.476C12.8877 40.14 13.0277 39.636 13.0277 38.964C13.0277 38.292 12.8877 37.792 12.6077 37.464C12.3277 37.136 11.9517 36.972 11.4797 36.972C11.0077 36.972 10.6317 37.136 10.3517 37.464C10.0717 37.792 9.93173 38.292 9.93173 38.964C9.93173 39.636 10.0717 40.14 10.3517 40.476C10.6317 40.804 11.0077 40.968 11.4797 40.968ZM15.8453 42V37.452C15.8453 37.204 15.8373 36.952 15.8213 36.696C15.8053 36.44 15.7813 36.188 15.7493 35.94H17.2013L17.3213 37.14H17.1773C17.3693 36.716 17.6533 36.392 18.0293 36.168C18.4053 35.936 18.8413 35.82 19.3373 35.82C20.0493 35.82 20.5853 36.02 20.9453 36.42C21.3053 36.82 21.4853 37.444 21.4853 38.292V42H19.9853V38.364C19.9853 37.876 19.8893 37.528 19.6973 37.32C19.5133 37.104 19.2333 36.996 18.8573 36.996C18.3933 36.996 18.0253 37.14 17.7533 37.428C17.4813 37.716 17.3453 38.1 17.3453 38.58V42H15.8453ZM25.6678 42.12C24.9478 42.12 24.4038 41.932 24.0358 41.556C23.6678 41.18 23.4838 40.616 23.4838 39.864V37.068H22.3198V35.94H23.4838V34.392L24.9838 34.008V35.94H26.6038V37.068H24.9838V39.768C24.9838 40.184 25.0638 40.476 25.2238 40.644C25.3838 40.812 25.6038 40.896 25.8838 40.896C26.0358 40.896 26.1638 40.884 26.2678 40.86C26.3798 40.836 26.4878 40.804 26.5918 40.764V41.952C26.4558 42.008 26.3038 42.048 26.1358 42.072C25.9758 42.104 25.8198 42.12 25.6678 42.12ZM29.9626 42.12C29.4346 42.12 28.9706 41.996 28.5706 41.748C28.1706 41.492 27.8586 41.128 27.6346 40.656C27.4106 40.184 27.2986 39.62 27.2986 38.964C27.2986 38.308 27.4106 37.748 27.6346 37.284C27.8586 36.812 28.1706 36.452 28.5706 36.204C28.9706 35.948 29.4346 35.82 29.9626 35.82C30.4746 35.82 30.9226 35.948 31.3066 36.204C31.6986 36.452 31.9586 36.788 32.0866 37.212H31.9546L32.0866 35.94H33.5266C33.5026 36.188 33.4786 36.44 33.4546 36.696C33.4386 36.952 33.4306 37.204 33.4306 37.452V42H31.9426L31.9306 40.752H32.0746C31.9466 41.168 31.6866 41.5 31.2946 41.748C30.9026 41.996 30.4586 42.12 29.9626 42.12ZM30.3826 40.968C30.8546 40.968 31.2346 40.804 31.5226 40.476C31.8106 40.14 31.9546 39.636 31.9546 38.964C31.9546 38.292 31.8106 37.792 31.5226 37.464C31.2346 37.136 30.8546 36.972 30.3826 36.972C29.9106 36.972 29.5306 37.136 29.2426 37.464C28.9546 37.792 28.8106 38.292 28.8106 38.964C28.8106 39.636 28.9506 40.14 29.2306 40.476C29.5186 40.804 29.9026 40.968 30.3826 40.968ZM37.848 42.12C37.224 42.12 36.676 41.992 36.204 41.736C35.74 41.48 35.38 41.116 35.124 40.644C34.868 40.164 34.74 39.596 34.74 38.94C34.74 38.284 34.868 37.724 35.124 37.26C35.388 36.796 35.752 36.44 36.216 36.192C36.68 35.944 37.224 35.82 37.848 35.82C38.248 35.82 38.636 35.884 39.012 36.012C39.396 36.132 39.708 36.308 39.948 36.54L39.492 37.584C39.276 37.384 39.032 37.236 38.76 37.14C38.496 37.036 38.236 36.984 37.98 36.984C37.444 36.984 37.024 37.152 36.72 37.488C36.424 37.824 36.276 38.312 36.276 38.952C36.276 39.592 36.424 40.084 36.72 40.428C37.024 40.772 37.444 40.944 37.98 40.944C38.228 40.944 38.484 40.896 38.748 40.8C39.02 40.704 39.268 40.556 39.492 40.356L39.948 41.388C39.7 41.62 39.384 41.8 39 41.928C38.624 42.056 38.24 42.12 37.848 42.12ZM43.7264 42.12C43.0064 42.12 42.4624 41.932 42.0944 41.556C41.7264 41.18 41.5424 40.616 41.5424 39.864V37.068H40.3784V35.94H41.5424V34.392L43.0424 34.008V35.94H44.6624V37.068H43.0424V39.768C43.0424 40.184 43.1224 40.476 43.2824 40.644C43.4424 40.812 43.6624 40.896 43.9424 40.896C44.0944 40.896 44.2224 40.884 44.3264 40.86C44.4384 40.836 44.5464 40.804 44.6504 40.764V41.952C44.5144 42.008 44.3624 42.048 44.1944 42.072C44.0344 42.104 43.8784 42.12 43.7264 42.12Z" fill="#505C6B" fill-opacity="0.5"/>
<path d="M30.95 21C28.8667 21 26.8083 20.5458 24.775 19.6375C22.7417 18.7292 20.8917 17.4417 19.225 15.775C17.5583 14.1083 16.2708 12.2583 15.3625 10.225C14.4542 8.19167 14 6.13333 14 4.05C14 3.75 14.1 3.5 14.3 3.3C14.5 3.1 14.75 3 15.05 3H19.1C19.3333 3 19.5417 3.07917 19.725 3.2375C19.9083 3.39583 20.0167 3.58333 20.05 3.8L20.7 7.3C20.7333 7.56667 20.725 7.79167 20.675 7.975C20.625 8.15833 20.5333 8.31667 20.4 8.45L17.975 10.9C18.3083 11.5167 18.7042 12.1125 19.1625 12.6875C19.6208 13.2625 20.125 13.8167 20.675 14.35C21.1917 14.8667 21.7333 15.3458 22.3 15.7875C22.8667 16.2292 23.4667 16.6333 24.1 17L26.45 14.65C26.6 14.5 26.7958 14.3875 27.0375 14.3125C27.2792 14.2375 27.5167 14.2167 27.75 14.25L31.2 14.95C31.4333 15.0167 31.625 15.1375 31.775 15.3125C31.925 15.4875 32 15.6833 32 15.9V19.95C32 20.25 31.9 20.5 31.7 20.7C31.5 20.9 31.25 21 30.95 21ZM17.025 9L18.675 7.35L18.25 5H16.025C16.1083 5.68333 16.225 6.35833 16.375 7.025C16.525 7.69167 16.7417 8.35 17.025 9ZM25.975 17.95C26.625 18.2333 27.2875 18.4583 27.9625 18.625C28.6375 18.7917 29.3167 18.9 30 18.95V16.75L27.65 16.275L25.975 17.95Z" fill="#505C6B" fill-opacity="0.5"/>
</svg>
