<svg width="34" height="45" viewBox="0 0 34 45" fill="none" xmlns="http://www.w3.org/2000/svg">
<path d="M1.05514 42V33.54H2.60314V37.068H6.93514V33.54H8.48314V42H6.93514V38.352H2.60314V42H1.05514ZM12.9641 42.12C12.3401 42.12 11.8001 41.992 11.3441 41.736C10.8881 41.48 10.5321 41.116 10.2761 40.644C10.0281 40.172 9.90411 39.612 9.90411 38.964C9.90411 38.316 10.0281 37.76 10.2761 37.296C10.5321 36.824 10.8881 36.46 11.3441 36.204C11.8001 35.948 12.3401 35.82 12.9641 35.82C13.5881 35.82 14.1281 35.948 14.5841 36.204C15.0481 36.46 15.4041 36.824 15.6521 37.296C15.9081 37.76 16.0361 38.316 16.0361 38.964C16.0361 39.612 15.9081 40.172 15.6521 40.644C15.4041 41.116 15.0481 41.48 14.5841 41.736C14.1281 41.992 13.5881 42.12 12.9641 42.12ZM12.9641 40.968C13.4361 40.968 13.8121 40.804 14.0921 40.476C14.3721 40.14 14.5121 39.636 14.5121 38.964C14.5121 38.292 14.3721 37.792 14.0921 37.464C13.8121 37.136 13.4361 36.972 12.9641 36.972C12.4921 36.972 12.1161 37.136 11.8361 37.464C11.5561 37.792 11.4161 38.292 11.4161 38.964C11.4161 39.636 11.5561 40.14 11.8361 40.476C12.1161 40.804 12.4921 40.968 12.9641 40.968ZM17.3297 42V37.452C17.3297 37.204 17.3217 36.952 17.3057 36.696C17.2897 36.44 17.2657 36.188 17.2337 35.94H18.6857L18.8057 37.14H18.6617C18.8297 36.724 19.0857 36.4 19.4297 36.168C19.7817 35.936 20.1977 35.82 20.6777 35.82C21.1577 35.82 21.5537 35.936 21.8657 36.168C22.1857 36.392 22.4097 36.744 22.5377 37.224H22.3457C22.5137 36.792 22.7897 36.452 23.1737 36.204C23.5577 35.948 23.9977 35.82 24.4937 35.82C25.1737 35.82 25.6817 36.02 26.0177 36.42C26.3537 36.82 26.5217 37.444 26.5217 38.292V42H25.0217V38.352C25.0217 37.872 24.9417 37.528 24.7817 37.32C24.6217 37.104 24.3657 36.996 24.0137 36.996C23.5977 36.996 23.2697 37.144 23.0297 37.44C22.7897 37.728 22.6697 38.12 22.6697 38.616V42H21.1697V38.352C21.1697 37.872 21.0897 37.528 20.9297 37.32C20.7697 37.104 20.5137 36.996 20.1617 36.996C19.7457 36.996 19.4177 37.144 19.1777 37.44C18.9457 37.728 18.8297 38.12 18.8297 38.616V42H17.3297ZM31.0506 42.12C30.0346 42.12 29.2386 41.84 28.6626 41.28C28.0866 40.72 27.7986 39.952 27.7986 38.976C27.7986 38.344 27.9226 37.792 28.1706 37.32C28.4186 36.848 28.7626 36.48 29.2026 36.216C29.6506 35.952 30.1706 35.82 30.7626 35.82C31.3466 35.82 31.8346 35.944 32.2266 36.192C32.6186 36.44 32.9146 36.788 33.1146 37.236C33.3226 37.684 33.4266 38.208 33.4266 38.808V39.204H29.0106V38.412H32.3586L32.1546 38.58C32.1546 38.02 32.0346 37.592 31.7946 37.296C31.5626 37 31.2226 36.852 30.7746 36.852C30.2786 36.852 29.8946 37.028 29.6226 37.38C29.3586 37.732 29.2266 38.224 29.2266 38.856V39.012C29.2266 39.668 29.3866 40.16 29.7066 40.488C30.0346 40.808 30.4946 40.968 31.0866 40.968C31.4306 40.968 31.7506 40.924 32.0466 40.836C32.3506 40.74 32.6386 40.588 32.9106 40.38L33.3546 41.388C33.0666 41.62 32.7226 41.8 32.3226 41.928C31.9226 42.056 31.4986 42.12 31.0506 42.12Z" fill="#004BAC"/>
<path d="M11 19H14V13H20V19H23V10L17 5.5L11 10V19ZM9 21V9L17 3L25 9V21H18V15H16V21H9Z" fill="#004BAC"/>
</svg>
