<svg width="47" height="45" viewBox="0 0 47 45" fill="none" xmlns="http://www.w3.org/2000/svg">
<path d="M0.0859375 42L3.91394 33.54H5.20994L9.08594 42H7.51394L6.48194 39.624L7.10594 40.044H2.02994L2.67794 39.624L1.64594 42H0.0859375ZM4.54994 35.196L2.85794 39.204L2.54594 38.832H6.57794L6.32594 39.204L4.59794 35.196H4.54994ZM12.6273 42.12C12.0033 42.12 11.4553 41.992 10.9833 41.736C10.5193 41.48 10.1593 41.116 9.90334 40.644C9.64734 40.164 9.51934 39.596 9.51934 38.94C9.51934 38.284 9.64734 37.724 9.90334 37.26C10.1673 36.796 10.5313 36.44 10.9953 36.192C11.4593 35.944 12.0033 35.82 12.6273 35.82C13.0273 35.82 13.4153 35.884 13.7913 36.012C14.1753 36.132 14.4873 36.308 14.7273 36.54L14.2713 37.584C14.0553 37.384 13.8113 37.236 13.5393 37.14C13.2753 37.036 13.0153 36.984 12.7593 36.984C12.2233 36.984 11.8033 37.152 11.4993 37.488C11.2033 37.824 11.0553 38.312 11.0553 38.952C11.0553 39.592 11.2033 40.084 11.4993 40.428C11.8033 40.772 12.2233 40.944 12.7593 40.944C13.0073 40.944 13.2633 40.896 13.5273 40.8C13.7993 40.704 14.0473 40.556 14.2713 40.356L14.7273 41.388C14.4793 41.62 14.1633 41.8 13.7793 41.928C13.4033 42.056 13.0193 42.12 12.6273 42.12ZM18.557 42.12C17.933 42.12 17.385 41.992 16.913 41.736C16.449 41.48 16.089 41.116 15.833 40.644C15.577 40.164 15.449 39.596 15.449 38.94C15.449 38.284 15.577 37.724 15.833 37.26C16.097 36.796 16.461 36.44 16.925 36.192C17.389 35.944 17.933 35.82 18.557 35.82C18.957 35.82 19.345 35.884 19.721 36.012C20.105 36.132 20.417 36.308 20.657 36.54L20.201 37.584C19.985 37.384 19.741 37.236 19.469 37.14C19.205 37.036 18.945 36.984 18.689 36.984C18.153 36.984 17.733 37.152 17.429 37.488C17.133 37.824 16.985 38.312 16.985 38.952C16.985 39.592 17.133 40.084 17.429 40.428C17.733 40.772 18.153 40.944 18.689 40.944C18.937 40.944 19.193 40.896 19.457 40.8C19.729 40.704 19.977 40.556 20.201 40.356L20.657 41.388C20.409 41.62 20.093 41.8 19.709 41.928C19.333 42.056 18.949 42.12 18.557 42.12ZM24.4387 42.12C23.8147 42.12 23.2747 41.992 22.8187 41.736C22.3627 41.48 22.0067 41.116 21.7507 40.644C21.5027 40.172 21.3787 39.612 21.3787 38.964C21.3787 38.316 21.5027 37.76 21.7507 37.296C22.0067 36.824 22.3627 36.46 22.8187 36.204C23.2747 35.948 23.8147 35.82 24.4387 35.82C25.0627 35.82 25.6027 35.948 26.0587 36.204C26.5227 36.46 26.8787 36.824 27.1267 37.296C27.3827 37.76 27.5107 38.316 27.5107 38.964C27.5107 39.612 27.3827 40.172 27.1267 40.644C26.8787 41.116 26.5227 41.48 26.0587 41.736C25.6027 41.992 25.0627 42.12 24.4387 42.12ZM24.4387 40.968C24.9107 40.968 25.2867 40.804 25.5667 40.476C25.8467 40.14 25.9867 39.636 25.9867 38.964C25.9867 38.292 25.8467 37.792 25.5667 37.464C25.2867 37.136 24.9107 36.972 24.4387 36.972C23.9667 36.972 23.5907 37.136 23.3107 37.464C23.0307 37.792 22.8907 38.292 22.8907 38.964C22.8907 39.636 23.0307 40.14 23.3107 40.476C23.5907 40.804 23.9667 40.968 24.4387 40.968ZM30.9883 42.12C30.2443 42.12 29.6883 41.916 29.3203 41.508C28.9523 41.1 28.7683 40.476 28.7683 39.636V35.94H30.2683V39.624C30.2683 40.072 30.3603 40.404 30.5443 40.62C30.7283 40.828 31.0083 40.932 31.3843 40.932C31.8083 40.932 32.1523 40.788 32.4163 40.5C32.6883 40.212 32.8243 39.832 32.8243 39.36V35.94H34.3243V42H32.8603V40.764H33.0283C32.8523 41.196 32.5843 41.532 32.2243 41.772C31.8723 42.004 31.4603 42.12 30.9883 42.12ZM35.9527 42V37.452C35.9527 37.204 35.9447 36.952 35.9287 36.696C35.9127 36.44 35.8887 36.188 35.8567 35.94H37.3087L37.4287 37.14H37.2847C37.4767 36.716 37.7607 36.392 38.1367 36.168C38.5127 35.936 38.9487 35.82 39.4447 35.82C40.1567 35.82 40.6927 36.02 41.0527 36.42C41.4127 36.82 41.5927 37.444 41.5927 38.292V42H40.0927V38.364C40.0927 37.876 39.9967 37.528 39.8047 37.32C39.6207 37.104 39.3407 36.996 38.9647 36.996C38.5007 36.996 38.1327 37.14 37.8607 37.428C37.5887 37.716 37.4527 38.1 37.4527 38.58V42H35.9527ZM45.7752 42.12C45.0552 42.12 44.5112 41.932 44.1432 41.556C43.7752 41.18 43.5912 40.616 43.5912 39.864V37.068H42.4272V35.94H43.5912V34.392L45.0912 34.008V35.94H46.7112V37.068H45.0912V39.768C45.0912 40.184 45.1712 40.476 45.3312 40.644C45.4912 40.812 45.7112 40.896 45.9912 40.896C46.1432 40.896 46.2712 40.884 46.3752 40.86C46.4872 40.836 46.5952 40.804 46.6992 40.764V41.952C46.5632 42.008 46.4112 42.048 46.2432 42.072C46.0832 42.104 45.9272 42.12 45.7752 42.12Z" fill="#505C6B" fill-opacity="0.5"/>
<path d="M24 12C22.9 12 21.9583 11.6083 21.175 10.825C20.3917 10.0417 20 9.1 20 8C20 6.9 20.3917 5.95833 21.175 5.175C21.9583 4.39167 22.9 4 24 4C25.1 4 26.0417 4.39167 26.825 5.175C27.6083 5.95833 28 6.9 28 8C28 9.1 27.6083 10.0417 26.825 10.825C26.0417 11.6083 25.1 12 24 12ZM16 20V17.2C16 16.6333 16.1458 16.1125 16.4375 15.6375C16.7292 15.1625 17.1167 14.8 17.6 14.55C18.6333 14.0333 19.6833 13.6458 20.75 13.3875C21.8167 13.1292 22.9 13 24 13C25.1 13 26.1833 13.1292 27.25 13.3875C28.3167 13.6458 29.3667 14.0333 30.4 14.55C30.8833 14.8 31.2708 15.1625 31.5625 15.6375C31.8542 16.1125 32 16.6333 32 17.2V20H16ZM18 18H30V17.2C30 17.0167 29.9542 16.85 29.8625 16.7C29.7708 16.55 29.65 16.4333 29.5 16.35C28.6 15.9 27.6917 15.5625 26.775 15.3375C25.8583 15.1125 24.9333 15 24 15C23.0667 15 22.1417 15.1125 21.225 15.3375C20.3083 15.5625 19.4 15.9 18.5 16.35C18.35 16.4333 18.2292 16.55 18.1375 16.7C18.0458 16.85 18 17.0167 18 17.2V18ZM24 10C24.55 10 25.0208 9.80417 25.4125 9.4125C25.8042 9.02083 26 8.55 26 8C26 7.45 25.8042 6.97917 25.4125 6.5875C25.0208 6.19583 24.55 6 24 6C23.45 6 22.9792 6.19583 22.5875 6.5875C22.1958 6.97917 22 7.45 22 8C22 8.55 22.1958 9.02083 22.5875 9.4125C22.9792 9.80417 23.45 10 24 10Z" fill="#505C6B" fill-opacity="0.5"/>
</svg>
