<svg width="24" height="24" viewBox="0 0 24 24" fill="none" xmlns="http://www.w3.org/2000/svg">
<path fill-rule="evenodd" clip-rule="evenodd" d="M8.83559 5.70723L14.1971 4.44C14.2258 4.43317 14.2524 4.41977 14.275 4.40072C14.3405 4.34535 14.4022 4.2898 14.4595 4.23434C15.0012 3.71011 15.1875 3.14319 15.068 2.66085C14.9848 2.32548 14.7526 1.97096 14.2367 1.68287C13.292 1.15559 12.0687 1.20719 10.9943 1.72647C9.61222 2.39461 8.50624 3.81204 8.60557 5.53573C8.60881 5.59101 8.63622 5.64207 8.68063 5.67514C8.72503 5.70822 8.78175 5.71991 8.83559 5.70723ZM13.5942 3.01555C13.5714 3 13.5462 2.98472 13.5186 2.96935C12.9694 2.66283 12.26 2.7511 11.6356 3.05294C10.8823 3.41708 10.2318 4.11658 10.099 4.99766C11.1134 4.59002 12.7035 3.8835 13.4349 3.17573C13.4944 3.11811 13.5516 3.06661 13.5942 3.01555Z" fill="#333578"/>
<path fill-rule="evenodd" clip-rule="evenodd" d="M3.36555 7.00015L8.72699 5.73291C8.78092 5.72015 8.82641 5.68419 8.85121 5.63475C8.87611 5.58532 8.87782 5.52743 8.85598 5.47655C8.1731 3.89075 6.54955 3.11853 5.01454 3.13983C3.82137 3.15646 2.70434 3.65804 2.0958 4.55251C1.76339 5.04105 1.7145 5.46208 1.79036 5.79907C1.89939 6.28401 2.3198 6.70747 3.0389 6.93372C3.11494 6.95763 3.19494 6.97965 3.27836 6.99988C3.30703 7.0068 3.33688 7.00689 3.36555 7.00015ZM7.27962 5.66406C6.76627 4.93561 5.87144 4.60141 5.03503 4.613C4.34146 4.62271 3.66766 4.86136 3.31387 5.38136C3.29607 5.40743 3.28034 5.43233 3.26694 5.45642C3.32789 5.48311 3.40214 5.50352 3.48106 5.52833C4.45202 5.83386 6.19009 5.75368 7.27962 5.66406Z" fill="#333578"/>
<path fill-rule="evenodd" clip-rule="evenodd" d="M5.72055 9.8374C5.70608 9.8374 5.69161 9.83902 5.6775 9.84244L2.67264 10.5526C2.60649 10.5683 2.55408 10.6184 2.53556 10.6839C2.50698 10.7847 2.4917 10.8912 2.4917 11.0014V20.665C2.4917 21.7656 3.38518 22.6592 4.48586 22.6592H17.0558C18.1564 22.6592 19.05 21.7656 19.05 20.665C19.05 20.665 19.05 13.6314 19.05 11.0014C19.05 10.3585 18.5289 9.8374 17.886 9.8374H5.72055Z" fill="#385391"/>
<path fill-rule="evenodd" clip-rule="evenodd" d="M21.0459 8.30997L20.0363 8.64418C19.8889 8.69299 19.7893 8.83087 19.7893 8.9862C19.7893 9.14152 19.8889 9.27932 20.0363 9.32813L21.0459 9.66242L21.3802 10.672C21.429 10.8195 21.5668 10.9191 21.7222 10.9191C21.8775 10.9191 22.0153 10.8195 22.0641 10.672L22.3984 9.66242L23.408 9.32813C23.5554 9.27932 23.655 9.14152 23.655 8.9862C23.655 8.83087 23.5554 8.69299 23.408 8.64418L22.3984 8.30997L22.0641 7.30036C22.0153 7.15285 21.8775 7.05334 21.7222 7.05334C21.5668 7.05334 21.429 7.15285 21.3802 7.30036L21.0459 8.30997Z" fill="#F57F1F"/>
<path fill-rule="evenodd" clip-rule="evenodd" d="M19.9507 1.72441L19.5181 3.03084C19.5147 3.04136 19.5064 3.04954 19.4959 3.05304L18.1895 3.48558C18.0219 3.54104 17.9087 3.69772 17.9087 3.87435C17.9087 4.05097 18.0219 4.20765 18.1895 4.2632L19.4959 4.69565C19.5064 4.69915 19.5147 4.70742 19.5181 4.71794L19.9507 6.02428C20.0061 6.19192 20.1629 6.30518 20.3394 6.30518C20.5161 6.30518 20.6727 6.19192 20.7283 6.02428L21.1607 4.71794C21.1642 4.70742 21.1725 4.69915 21.183 4.69565L22.4894 4.2632C22.657 4.20765 22.7703 4.05097 22.7703 3.87435C22.7703 3.69772 22.657 3.54104 22.4894 3.48558L21.183 3.05304C21.1725 3.04954 21.1642 3.04136 21.1607 3.03084L20.7283 1.72441C20.6727 1.55677 20.5161 1.4436 20.3394 1.4436C20.1629 1.4436 20.0061 1.55677 19.9507 1.72441Z" fill="#FAA923"/>
<path fill-rule="evenodd" clip-rule="evenodd" d="M17.8508 5.06287C17.6196 4.08472 16.6377 3.47824 15.6595 3.70944L1.73072 7.00157C0.752562 7.23285 0.146091 8.21469 0.377282 9.19294L0.470315 9.58647C0.701506 10.5647 1.68335 11.1712 2.6616 10.94L16.5904 7.64777C17.5686 7.41658 18.175 6.43474 17.9438 5.45649L17.8508 5.06287Z" fill="#3E75B4"/>
<path fill-rule="evenodd" clip-rule="evenodd" d="M8.81909 9.8374H12.7224V22.6592H8.81909V9.8374Z" fill="#FFB056"/>
<path fill-rule="evenodd" clip-rule="evenodd" d="M11.74 8.79438L7.51217 9.79367L6.5813 5.85524L10.8093 4.85596L11.74 8.79438Z" fill="#FFB867"/>
</svg>
