<svg width="47" height="45" viewBox="0 0 47 45" fill="none" xmlns="http://www.w3.org/2000/svg">
<path d="M4.15558 42.12C3.47558 42.12 2.84758 42.036 2.27158 41.868C1.70358 41.692 1.21558 41.452 0.807578 41.148L1.28758 39.936C1.55958 40.128 1.84358 40.292 2.13958 40.428C2.43558 40.556 2.75158 40.656 3.08758 40.728C3.42358 40.792 3.77958 40.824 4.15558 40.824C4.78758 40.824 5.24358 40.72 5.52358 40.512C5.80358 40.304 5.94358 40.032 5.94358 39.696C5.94358 39.4 5.84758 39.176 5.65558 39.024C5.46358 38.864 5.11958 38.732 4.62358 38.628L3.26758 38.352C2.49158 38.192 1.91158 37.924 1.52758 37.548C1.14358 37.172 0.951578 36.668 0.951578 36.036C0.951578 35.508 1.09158 35.048 1.37158 34.656C1.65158 34.264 2.04358 33.96 2.54758 33.744C3.05158 33.528 3.63958 33.42 4.31158 33.42C4.91158 33.42 5.46758 33.508 5.97958 33.684C6.49158 33.852 6.91958 34.096 7.26358 34.416L6.78358 35.568C6.43958 35.28 6.06358 35.068 5.65558 34.932C5.24758 34.788 4.79158 34.716 4.28758 34.716C3.71958 34.716 3.27558 34.828 2.95558 35.052C2.64358 35.268 2.48758 35.568 2.48758 35.952C2.48758 36.248 2.58358 36.484 2.77558 36.66C2.97558 36.836 3.31158 36.972 3.78358 37.068L5.12758 37.332C5.92758 37.492 6.51958 37.756 6.90358 38.124C7.28758 38.484 7.47958 38.972 7.47958 39.588C7.47958 40.092 7.34358 40.536 7.07158 40.92C6.79958 41.296 6.41558 41.592 5.91958 41.808C5.42358 42.016 4.83558 42.12 4.15558 42.12ZM11.002 42.12C10.258 42.12 9.70195 41.916 9.33395 41.508C8.96595 41.1 8.78195 40.476 8.78195 39.636V35.94H10.282V39.624C10.282 40.072 10.374 40.404 10.558 40.62C10.742 40.828 11.022 40.932 11.398 40.932C11.822 40.932 12.166 40.788 12.43 40.5C12.702 40.212 12.838 39.832 12.838 39.36V35.94H14.338V42H12.874V40.764H13.042C12.866 41.196 12.598 41.532 12.238 41.772C11.886 42.004 11.474 42.12 11.002 42.12ZM15.9664 44.592V37.452C15.9664 37.204 15.9584 36.952 15.9424 36.696C15.9264 36.44 15.9024 36.188 15.8704 35.94H17.3224L17.4544 37.212H17.3224C17.4424 36.788 17.6944 36.452 18.0784 36.204C18.4704 35.948 18.9224 35.82 19.4344 35.82C19.9704 35.82 20.4384 35.948 20.8384 36.204C21.2384 36.452 21.5504 36.812 21.7744 37.284C21.9984 37.748 22.1104 38.308 22.1104 38.964C22.1104 39.62 21.9984 40.184 21.7744 40.656C21.5504 41.128 21.2384 41.492 20.8384 41.748C20.4384 41.996 19.9704 42.12 19.4344 42.12C18.9304 42.12 18.4864 41.996 18.1024 41.748C17.7184 41.5 17.4624 41.168 17.3344 40.752H17.4664V44.592H15.9664ZM19.0144 40.968C19.4944 40.968 19.8784 40.804 20.1664 40.476C20.4544 40.14 20.5984 39.636 20.5984 38.964C20.5984 38.292 20.4544 37.792 20.1664 37.464C19.8784 37.136 19.4944 36.972 19.0144 36.972C18.5424 36.972 18.1624 37.136 17.8744 37.464C17.5864 37.792 17.4424 38.292 17.4424 38.964C17.4424 39.636 17.5864 40.14 17.8744 40.476C18.1624 40.804 18.5424 40.968 19.0144 40.968ZM23.4078 44.592V37.452C23.4078 37.204 23.3998 36.952 23.3838 36.696C23.3678 36.44 23.3438 36.188 23.3118 35.94H24.7638L24.8958 37.212H24.7638C24.8838 36.788 25.1358 36.452 25.5198 36.204C25.9118 35.948 26.3638 35.82 26.8758 35.82C27.4118 35.82 27.8798 35.948 28.2798 36.204C28.6798 36.452 28.9918 36.812 29.2158 37.284C29.4398 37.748 29.5518 38.308 29.5518 38.964C29.5518 39.62 29.4398 40.184 29.2158 40.656C28.9918 41.128 28.6798 41.492 28.2798 41.748C27.8798 41.996 27.4118 42.12 26.8758 42.12C26.3718 42.12 25.9278 41.996 25.5438 41.748C25.1598 41.5 24.9038 41.168 24.7758 40.752H24.9078V44.592H23.4078ZM26.4558 40.968C26.9358 40.968 27.3198 40.804 27.6078 40.476C27.8958 40.14 28.0398 39.636 28.0398 38.964C28.0398 38.292 27.8958 37.792 27.6078 37.464C27.3198 37.136 26.9358 36.972 26.4558 36.972C25.9838 36.972 25.6038 37.136 25.3158 37.464C25.0278 37.792 24.8838 38.292 24.8838 38.964C24.8838 39.636 25.0278 40.14 25.3158 40.476C25.6038 40.804 25.9838 40.968 26.4558 40.968ZM33.5852 42.12C32.9612 42.12 32.4212 41.992 31.9652 41.736C31.5092 41.48 31.1532 41.116 30.8972 40.644C30.6492 40.172 30.5252 39.612 30.5252 38.964C30.5252 38.316 30.6492 37.76 30.8972 37.296C31.1532 36.824 31.5092 36.46 31.9652 36.204C32.4212 35.948 32.9612 35.82 33.5852 35.82C34.2092 35.82 34.7492 35.948 35.2052 36.204C35.6692 36.46 36.0252 36.824 36.2732 37.296C36.5292 37.76 36.6572 38.316 36.6572 38.964C36.6572 39.612 36.5292 40.172 36.2732 40.644C36.0252 41.116 35.6692 41.48 35.2052 41.736C34.7492 41.992 34.2092 42.12 33.5852 42.12ZM33.5852 40.968C34.0572 40.968 34.4332 40.804 34.7132 40.476C34.9932 40.14 35.1332 39.636 35.1332 38.964C35.1332 38.292 34.9932 37.792 34.7132 37.464C34.4332 37.136 34.0572 36.972 33.5852 36.972C33.1132 36.972 32.7372 37.136 32.4572 37.464C32.1772 37.792 32.0372 38.292 32.0372 38.964C32.0372 39.636 32.1772 40.14 32.4572 40.476C32.7372 40.804 33.1132 40.968 33.5852 40.968ZM37.9388 42V37.488C37.9388 37.232 37.9308 36.972 37.9148 36.708C37.9068 36.444 37.8868 36.188 37.8548 35.94H39.3068L39.4748 37.596H39.2348C39.3148 37.196 39.4468 36.864 39.6308 36.6C39.8228 36.336 40.0548 36.14 40.3268 36.012C40.5988 35.884 40.8948 35.82 41.2148 35.82C41.3588 35.82 41.4748 35.828 41.5628 35.844C41.6508 35.852 41.7388 35.872 41.8268 35.904L41.8148 37.224C41.6628 37.16 41.5308 37.12 41.4188 37.104C41.3148 37.088 41.1828 37.08 41.0228 37.08C40.6788 37.08 40.3868 37.152 40.1468 37.296C39.9148 37.44 39.7388 37.64 39.6188 37.896C39.5068 38.152 39.4508 38.444 39.4508 38.772V42H37.9388ZM45.5935 42.12C44.8735 42.12 44.3295 41.932 43.9615 41.556C43.5935 41.18 43.4095 40.616 43.4095 39.864V37.068H42.2455V35.94H43.4095V34.392L44.9095 34.008V35.94H46.5295V37.068H44.9095V39.768C44.9095 40.184 44.9895 40.476 45.1495 40.644C45.3095 40.812 45.5295 40.896 45.8095 40.896C45.9615 40.896 46.0895 40.884 46.1935 40.86C46.3055 40.836 46.4135 40.804 46.5175 40.764V41.952C46.3815 42.008 46.2295 42.048 46.0615 42.072C45.9015 42.104 45.7455 42.12 45.5935 42.12Z" fill="#505C6B" fill-opacity="0.5"/>
<path d="M23 21V19H31V11.9C31 9.95 30.3208 8.29583 28.9625 6.9375C27.6042 5.57917 25.95 4.9 24 4.9C22.05 4.9 20.3958 5.57917 19.0375 6.9375C17.6792 8.29583 17 9.95 17 11.9V18H16C15.45 18 14.9792 17.8042 14.5875 17.4125C14.1958 17.0208 14 16.55 14 16V14C14 13.65 14.0875 13.3208 14.2625 13.0125C14.4375 12.7042 14.6833 12.4583 15 12.275L15.075 10.95C15.2083 9.81667 15.5375 8.76667 16.0625 7.8C16.5875 6.83333 17.2458 5.99167 18.0375 5.275C18.8292 4.55833 19.7375 4 20.7625 3.6C21.7875 3.2 22.8667 3 24 3C25.1333 3 26.2083 3.2 27.225 3.6C28.2417 4 29.15 4.55417 29.95 5.2625C30.75 5.97083 31.4083 6.80833 31.925 7.775C32.4417 8.74167 32.775 9.79167 32.925 10.925L33 12.225C33.3167 12.375 33.5625 12.6 33.7375 12.9C33.9125 13.2 34 13.5167 34 13.85V16.15C34 16.4833 33.9125 16.8 33.7375 17.1C33.5625 17.4 33.3167 17.625 33 17.775V19C33 19.55 32.8042 20.0208 32.4125 20.4125C32.0208 20.8042 31.55 21 31 21H23ZM21 14C20.7167 14 20.4792 13.9042 20.2875 13.7125C20.0958 13.5208 20 13.2833 20 13C20 12.7167 20.0958 12.4792 20.2875 12.2875C20.4792 12.0958 20.7167 12 21 12C21.2833 12 21.5208 12.0958 21.7125 12.2875C21.9042 12.4792 22 12.7167 22 13C22 13.2833 21.9042 13.5208 21.7125 13.7125C21.5208 13.9042 21.2833 14 21 14ZM27 14C26.7167 14 26.4792 13.9042 26.2875 13.7125C26.0958 13.5208 26 13.2833 26 13C26 12.7167 26.0958 12.4792 26.2875 12.2875C26.4792 12.0958 26.7167 12 27 12C27.2833 12 27.5208 12.0958 27.7125 12.2875C27.9042 12.4792 28 12.7167 28 13C28 13.2833 27.9042 13.5208 27.7125 13.7125C27.5208 13.9042 27.2833 14 27 14ZM18.025 12.45C17.9083 10.6833 18.4417 9.16667 19.625 7.9C20.8083 6.63333 22.2833 6 24.05 6C25.5333 6 26.8375 6.47083 27.9625 7.4125C29.0875 8.35417 29.7667 9.55833 30 11.025C28.4833 11.0083 27.0875 10.6 25.8125 9.8C24.5375 9 23.5583 7.91667 22.875 6.55C22.6083 7.88333 22.0458 9.07083 21.1875 10.1125C20.3292 11.1542 19.275 11.9333 18.025 12.45Z" fill="#505C6B" fill-opacity="0.5"/>
</svg>
